<?xml version="1.0" standalone="no"?>
<!DOCTYPE svg PUBLIC "-//W3C//DTD SVG 20010904//EN"
 "http://www.w3.org/TR/2001/REC-SVG-20010904/DTD/svg10.dtd">
<svg version="1.0" xmlns="http://www.w3.org/2000/svg"
 width="1280.000000pt" height="1279.000000pt" viewBox="0 0 1280.000000 1279.000000"
 preserveAspectRatio="xMidYMid meet">
<metadata>
Created by potrace 1.15, written by Peter Selinger 2001-2017
</metadata>
<g transform="translate(0.000000,1279.000000) scale(0.100000,-0.100000)"
fill="#000000" stroke="none">
<path d="M9367 12759 c-51 -33 -116 -106 -194 -214 -92 -127 -112 -169 -148
-300 -81 -296 -206 -635 -278 -753 -56 -94 -104 -103 -176 -34 -56 54 -85 136
-85 243 0 78 3 91 37 160 20 40 59 110 86 154 65 103 72 135 38 169 -33 33
-100 35 -159 5 -81 -42 -192 -188 -248 -329 -28 -70 -23 -152 21 -360 84 -401
91 -438 92 -527 1 -57 -2 -96 -9 -103 -7 -6 -30 -16 -52 -21 -86 -19 -213 39
-319 147 -53 55 -410 583 -433 642 -12 31 -10 89 6 170 l6 32 -42 0 c-37 0
-48 -6 -79 -38 -44 -46 -60 -92 -68 -192 -4 -54 -1 -94 11 -140 33 -127 151
-344 322 -592 73 -105 121 -153 266 -267 129 -100 183 -188 198 -317 15 -135
-6 -250 -109 -604 -98 -335 -99 -339 -121 -446 -68 -329 -31 -620 115 -919 70
-145 142 -250 238 -352 44 -46 73 -83 66 -83 -8 0 -52 7 -99 15 -47 8 -88 15
-91 15 -6 0 -23 -147 -20 -167 4 -22 465 -158 586 -174 68 -8 93 -15 80 -20
-11 -4 -34 -8 -51 -8 -17 -1 -46 -4 -63 -7 -26 -6 -31 -11 -31 -35 0 -24 10
-35 53 -64 l53 -35 275 21 274 21 180 -74 180 -75 -4 -204 c-1 -112 -5 -206
-7 -208 -3 -3 -127 -17 -277 -33 -200 -20 -294 -34 -357 -53 -179 -53 -301
-76 -440 -82 l-135 -5 -295 149 c-470 237 -726 331 -953 348 -82 7 -501 -27
-957 -76 -224 -24 -170 -25 -1160 27 -631 33 -673 34 -1140 28 l-485 -6 -290
50 c-392 69 -446 75 -605 69 -158 -6 -285 -31 -699 -138 -152 -39 -288 -74
-303 -76 -16 -3 -60 7 -110 27 -112 42 -270 80 -340 80 -98 0 -185 -55 -415
-261 -90 -81 -123 -117 -127 -139 -3 -17 -9 -43 -12 -60 -5 -26 -3 -30 18 -30
20 0 107 12 179 24 25 5 27 3 27 -35 1 -44 34 -110 108 -217 l44 -63 -28 -29
c-83 -82 -69 -265 53 -705 70 -251 178 -682 201 -800 24 -123 25 -294 1 -361
-47 -135 -319 -499 -705 -944 -138 -158 -162 -191 -166 -225 -3 -22 -24 -312
-47 -645 l-41 -605 -100 -630 -100 -630 2 -245 c1 -135 3 -246 5 -248 2 -2
165 -46 362 -98 l358 -94 22 25 c12 14 27 44 34 67 18 67 4 119 -49 189 -26
33 -71 94 -99 135 l-53 74 6 138 c3 75 12 412 20 747 17 737 31 868 114 1083
38 98 70 149 178 281 145 176 185 214 522 499 179 151 336 284 350 296 l24 21
-25 -35 c-199 -274 -283 -378 -336 -415 -120 -84 -140 -201 -57 -333 21 -34
135 -155 284 -302 201 -199 258 -262 305 -335 107 -167 298 -414 658 -849
l190 -230 -6 -140 -7 -141 114 -121 c112 -118 115 -122 126 -185 8 -41 31 -97
63 -157 l51 -92 71 0 c40 0 154 3 253 7 l182 6 0 40 c0 21 -7 54 -16 73 -17
36 -89 115 -136 151 -26 19 -28 27 -40 153 -12 129 -13 136 -50 190 -37 56
-38 60 -44 174 l-7 118 -530 646 c-291 356 -551 668 -578 694 -60 60 -79 117
-79 239 0 65 6 103 21 146 21 56 91 163 107 163 5 0 147 148 316 329 169 181
313 334 320 340 10 9 44 -3 139 -48 313 -148 600 -247 854 -296 114 -22 352
-37 473 -30 403 23 778 66 1145 130 112 19 265 29 265 17 0 -6 -31 -127 -69
-269 -96 -358 -197 -765 -276 -1108 l-67 -290 -61 -80 c-200 -262 -368 -491
-472 -640 -124 -179 -209 -292 -312 -413 l-63 -74 0 -92 0 -93 -80 -167 c-44
-91 -80 -170 -80 -175 0 -4 157 -30 350 -57 210 -30 350 -45 350 -39 0 5 -18
68 -40 140 -22 72 -40 134 -40 139 0 4 16 -4 36 -19 19 -15 37 -25 39 -23 3 2
16 61 30 130 32 164 83 329 145 475 108 250 228 432 524 788 63 77 130 166
147 198 17 32 75 179 129 327 172 469 228 588 355 759 39 53 109 153 155 221
46 69 97 142 114 164 42 52 103 86 155 86 36 0 44 -4 60 -31 26 -42 35 -129
22 -210 -13 -77 -15 -67 144 -714 130 -527 186 -710 270 -870 35 -66 68 -136
74 -155 11 -38 97 -583 136 -868 l24 -172 -20 -70 c-10 -38 -37 -115 -59 -171
-23 -56 -40 -103 -38 -104 5 -5 674 -145 691 -145 12 0 16 25 21 148 3 81 8
173 10 205 3 48 1 59 -12 64 -54 16 -74 28 -112 66 -89 89 -142 228 -205 542
-40 200 -71 404 -85 565 -8 100 -7 131 10 230 26 151 25 236 -4 411 -51 297
-96 708 -96 869 0 60 8 113 26 180 14 52 36 146 49 207 13 62 26 116 29 121 2
4 67 36 144 71 135 61 146 68 347 232 114 93 257 215 319 272 201 187 259 225
344 225 68 0 167 47 449 214 200 118 219 127 498 231 248 92 571 197 610 197
6 0 45 18 86 39 122 64 287 131 419 169 l125 37 280 -1 c154 0 324 -6 379 -12
l98 -12 72 -73 c83 -85 131 -112 187 -104 92 12 287 130 361 219 116 137 180
265 179 356 0 44 -9 69 -45 137 -24 46 -57 100 -72 119 -22 27 -183 122 -691
407 -393 221 -690 394 -730 426 -65 52 -93 86 -80 99 3 4 76 9 161 12 l155 5
218 196 c196 177 228 211 330 346 160 212 209 261 318 316 50 25 119 56 155
69 36 13 74 31 85 41 11 9 72 35 136 57 176 61 228 91 229 134 0 10 -22 42
-48 71 -26 29 -82 95 -124 147 l-76 95 -7 128 c-6 107 -10 127 -22 123 -8 -4
-55 -34 -104 -68 l-89 -61 0 -86 c0 -133 -7 -160 -45 -178 -31 -15 -34 -14
-81 13 -151 87 -210 134 -314 252 l-56 62 -79 -135 c-63 -107 -84 -135 -101
-135 -21 0 -19 6 28 111 47 105 48 112 31 125 -27 20 -34 17 -78 -36 -54 -65
-127 -121 -162 -123 -27 -2 -28 0 -25 39 1 23 20 97 41 165 22 68 44 143 50
166 20 76 -18 120 -77 89 -36 -19 -75 -68 -130 -162 -22 -39 -48 -76 -56 -83
-13 -11 -17 -9 -27 15 -34 90 -51 291 -34 426 8 66 7 67 -23 97 -72 73 -169
18 -239 -135 -27 -58 -27 -63 -34 -334 -9 -346 -19 -391 -93 -448 -43 -32
-512 -316 -597 -361 l-45 -24 -136 77 c-130 73 -138 80 -154 122 -36 96 4 240
148 529 148 295 301 531 488 750 248 290 867 1069 951 1196 87 130 250 398
280 459 71 142 96 303 55 349 -39 43 -119 16 -169 -56 -14 -21 -47 -82 -72
-137 -72 -150 -173 -243 -183 -167 -6 38 6 66 55 138 65 95 178 319 203 404
41 138 19 257 -77 408 -87 138 -174 186 -223 124 -32 -41 -24 -115 24 -227 39
-88 39 -88 33 -195 -6 -121 -15 -152 -60 -200 -40 -42 -115 -91 -139 -91 -28
0 -76 27 -88 50 -17 32 15 854 36 911 37 105 12 174 -63 172 -79 -2 -138 -109
-207 -377 l-36 -139 -3 -331 c-4 -346 -11 -407 -48 -414 -31 -6 -113 42 -179
105 -68 63 -155 180 -317 423 -182 273 -282 457 -305 562 -14 65 -34 85 -59
62 -10 -9 -21 -29 -24 -45 -8 -36 -18 -37 -33 -4 -16 35 -54 33 -77 -2 -9 -16
-100 -109 -201 -208 -163 -160 -184 -185 -194 -225 -20 -83 -25 -90 -70 -90
-23 0 -49 4 -59 10 -35 18 -51 83 -51 201 l0 110 84 192 c107 246 175 425 183
484 5 38 3 48 -12 59 -30 22 -68 16 -118 -17z m513 -948 c16 -54 30 -103 30
-108 0 -12 -75 -33 -118 -33 -16 0 -35 7 -42 15 -24 29 9 127 65 194 15 17 28
31 30 31 2 0 18 -44 35 -99z m303 -553 c179 -185 283 -345 294 -453 5 -48 1
-62 -36 -140 -24 -48 -48 -85 -54 -83 -26 6 -886 473 -884 479 4 11 109 94
182 143 88 59 148 88 255 126 132 45 129 46 243 -72z m-578 -766 c209 -99 397
-187 419 -196 63 -26 135 -85 164 -134 27 -47 27 -48 25 -217 -2 -186 -17
-356 -38 -434 -7 -28 -67 -146 -133 -263 -167 -298 -450 -821 -483 -894 -71
-156 -82 -225 -64 -431 6 -73 5 -103 -3 -103 -21 0 -154 52 -296 115 -261 116
-625 323 -702 401 -50 50 -100 150 -120 242 -22 99 -28 281 -15 407 12 104 18
125 123 390 278 706 322 814 420 1022 99 211 107 225 161 272 l58 50 52 -23
c29 -13 223 -104 432 -204z m2270 -2314 c-2 -7 -13 -56 -25 -109 -24 -109 -14
-101 -137 -114 l-62 -7 -100 -112 c-165 -184 -344 -362 -382 -379 -78 -35
-163 -51 -279 -51 -112 0 -117 1 -190 35 -41 20 -106 54 -143 76 l-68 40 288
136 c310 146 392 175 737 252 l150 34 105 105 c58 58 107 106 108 106 1 0 1
-6 -2 -12z"/>
</g>
</svg>
