<?xml version="1.0" standalone="no"?>
<!DOCTYPE svg PUBLIC "-//W3C//DTD SVG 20010904//EN"
 "http://www.w3.org/TR/2001/REC-SVG-20010904/DTD/svg10.dtd">
<svg version="1.0" xmlns="http://www.w3.org/2000/svg"
 width="887.000000pt" height="1280.000000pt" viewBox="0 0 887.000000 1280.000000"
 preserveAspectRatio="xMidYMid meet">
<metadata>
Created by potrace 1.15, written by Peter Selinger 2001-2017
</metadata>
<g transform="translate(0.000000,1280.000000) scale(0.100000,-0.100000)"
fill="#03a9f4" stroke="none">
<path d="M7140 12773 c-22 -20 -39 -53 -59 -114 -34 -102 -56 -146 -128 -261
-80 -126 -113 -228 -113 -348 0 -52 7 -122 15 -155 22 -90 21 -91 -37 -110
-89 -28 -181 -89 -256 -170 -65 -69 -71 -79 -81 -138 -19 -109 -30 -217 -40
-377 -10 -163 -26 -232 -80 -352 l-28 -63 19 -45 c51 -119 151 -402 197 -555
192 -647 275 -1232 288 -2037 l6 -367 -59 -58 c-83 -81 -168 -125 -256 -131
-98 -7 -137 11 -291 140 -427 355 -656 482 -1055 588 -81 21 -257 76 -392 122
-422 145 -672 195 -1015 205 -278 8 -517 -18 -770 -84 -94 -24 -116 -26 -350
-27 -219 -2 -264 -5 -360 -25 -331 -69 -676 -240 -976 -483 l-105 -85 -50 40
c-105 84 -249 136 -343 122 -175 -25 -310 -181 -390 -451 -47 -160 -62 -293
-71 -634 -5 -191 -14 -352 -22 -390 -20 -102 -16 -232 11 -320 35 -114 94
-221 156 -279 46 -43 60 -51 92 -51 56 0 70 16 76 85 6 57 67 205 86 205 12 0
106 -131 154 -215 134 -236 205 -527 178 -730 -20 -146 -53 -215 -154 -324
-40 -42 -112 -135 -162 -205 -210 -299 -378 -511 -426 -536 -17 -10 18 52 79
139 l17 24 -30 -7 c-84 -20 -208 -150 -237 -249 -6 -23 -22 -55 -36 -71 -63
-78 -129 -264 -139 -396 -4 -59 0 -99 20 -190 42 -188 110 -541 217 -1125 141
-769 135 -733 193 -1019 l52 -259 40 -14 c22 -8 99 -23 170 -33 170 -26 182
-28 237 -56 38 -19 49 -32 64 -69 9 -25 29 -56 44 -69 39 -32 43 -43 89 -226
64 -254 66 -259 116 -281 191 -85 633 -70 895 30 87 33 85 30 66 94 -22 77
-102 192 -215 310 -163 170 -249 239 -374 301 -138 68 -207 128 -283 244 -31
48 -75 106 -96 129 -36 37 -44 54 -73 170 -18 70 -86 288 -150 483 -64 195
-135 416 -157 490 -102 343 -57 478 291 875 68 77 146 173 174 212 28 40 52
71 54 69 6 -5 -95 -252 -137 -336 -23 -46 -57 -105 -75 -132 -40 -57 -50 -111
-41 -215 12 -150 64 -286 116 -306 32 -12 92 -107 214 -334 197 -369 565
-1138 653 -1363 34 -85 59 -111 162 -164 102 -52 207 -86 267 -86 l45 0 -23
-31 c-35 -48 -30 -114 16 -219 21 -47 43 -99 48 -117 10 -28 20 -35 72 -52 34
-11 95 -27 136 -36 101 -22 412 -31 521 -16 100 14 242 55 258 74 15 19 -1
102 -30 159 -47 93 -181 205 -395 335 -89 53 -100 64 -307 322 -78 96 -186
227 -241 291 -205 239 -368 530 -480 857 -116 339 -123 589 -21 713 7 8 25 53
40 100 30 94 72 182 118 250 50 73 167 189 243 241 205 139 367 334 489 591
66 140 109 263 186 533 66 230 92 293 131 314 24 14 30 12 104 -36 212 -134
472 -250 689 -307 157 -41 226 -51 365 -50 124 0 200 12 275 40 13 5 15 -15
15 -162 0 -433 61 -682 207 -844 l46 -51 -6 -217 c-8 -306 -35 -517 -127
-1022 -27 -146 -52 -287 -55 -315 -4 -27 -27 -171 -52 -320 -40 -237 -46 -290
-47 -430 -1 -221 7 -241 159 -390 93 -91 114 -117 120 -148 6 -30 25 -55 85
-115 75 -76 140 -181 140 -228 0 -10 9 -37 21 -61 25 -51 67 -77 109 -68 34 7
34 7 51 -127 l11 -98 42 -11 c197 -53 384 -84 471 -76 79 6 123 31 176 103 49
66 51 113 12 211 -33 83 -197 338 -242 375 -18 15 -74 48 -124 72 -135 65
-230 153 -339 313 l-53 78 -3 214 c-4 235 6 409 44 776 22 220 31 265 97 533
44 180 74 285 79 275 11 -28 9 -366 -3 -493 -5 -63 -26 -223 -45 -355 -57
-391 -55 -538 9 -678 49 -106 161 -214 303 -292 50 -28 52 -30 74 -108 20 -67
32 -90 77 -140 38 -43 55 -71 60 -99 7 -50 32 -66 162 -107 132 -41 195 -51
335 -51 190 0 304 37 380 121 l39 42 -6 73 c-14 184 -141 312 -372 378 -49 14
-102 28 -116 31 -17 3 -29 13 -33 28 -9 38 -42 73 -141 151 -187 149 -245 265
-245 489 0 197 52 384 186 669 89 189 124 276 244 608 279 775 461 1142 664
1345 50 50 105 93 142 113 52 27 63 38 77 74 21 56 34 139 42 267 13 207 46
277 191 403 392 341 561 758 604 1488 18 299 24 984 11 1210 -43 729 -155
1387 -327 1909 -30 91 -54 165 -54 166 0 1 40 25 89 54 93 56 153 107 176 151
15 29 51 40 136 40 60 0 251 34 309 55 120 43 198 118 229 220 60 194 74 361
37 433 -21 41 -70 65 -276 137 -225 79 -281 108 -376 201 -171 166 -402 313
-559 354 -78 20 -74 11 -56 125 6 39 11 153 11 255 0 192 11 275 47 360 17 40
18 50 6 91 -23 80 -74 113 -134 89 -28 -12 -119 -111 -119 -130 0 -5 6 -11 13
-14 6 -3 3 -4 -8 -3 -27 3 -44 -51 -57 -178 -12 -114 -20 -146 -25 -95 -14
147 -45 384 -52 404 -11 28 -48 56 -73 56 -10 0 -31 -12 -48 -27z"/>
</g>
</svg>
